<?xml version="1.0" standalone="no"?>
<!DOCTYPE svg PUBLIC "-//W3C//DTD SVG 20010904//EN"
 "http://www.w3.org/TR/2001/REC-SVG-20010904/DTD/svg10.dtd">
<svg version="1.0" xmlns="http://www.w3.org/2000/svg"
 width="422.000000pt" height="422.000000pt" viewBox="0 0 422.000000 422.000000"
 preserveAspectRatio="xMidYMid meet">
<metadata>
Created by potrace 1.14, written by Peter Selinger 2001-2017
</metadata>
<g transform="translate(0.000000,422.000000) scale(0.100000,-0.100000)"
fill="#000000" stroke="none">
<path d="M2145 3838 c-270 -53 -288 -58 -348 -92 -34 -19 -85 -56 -113 -83
-61 -57 -95 -137 -120 -283 -19 -112 -14 -188 18 -280 18 -52 22 -81 19 -150
-2 -47 -4 -197 -4 -335 -1 -245 -1 -252 27 -349 23 -85 60 -168 113 -259 16
-29 -18 -97 -49 -97 -20 0 -136 -48 -263 -110 -33 -16 -168 -65 -300 -109
-132 -43 -305 -107 -385 -141 -80 -34 -160 -65 -178 -70 -76 -19 -105 -55
-134 -167 -21 -83 -20 -180 4 -290 9 -43 8 -71 -5 -145 -9 -51 -19 -119 -22
-151 -3 -32 -16 -79 -29 -105 -34 -69 -39 -99 -25 -170 l13 -63 -43 -37 c-27
-24 -45 -49 -50 -72 -11 -44 -46 -169 -65 -233 l-15 -47 981 0 981 0 -7 163
c-3 89 -9 184 -13 211 -5 38 -3 47 7 41 12 -7 59 -104 65 -135 2 -8 4 -15 5
-15 1 0 4 -16 7 -35 9 -64 22 -68 20 -5 -1 33 -6 63 -11 66 -4 4 -9 19 -11 35
-1 16 -4 36 -8 44 -3 8 -15 69 -26 135 -12 66 -27 154 -35 195 -8 41 -12 78
-10 82 3 4 -1 18 -7 30 -7 13 -12 58 -11 103 1 97 -18 165 -86 302 -18 38 -38
106 -52 180 -13 65 -29 131 -36 148 -14 32 -9 49 7 25 7 -11 8 -6 3 15 -4 17
-13 38 -21 47 -8 9 -12 21 -9 26 8 13 -23 72 -40 79 -9 3 -12 13 -9 24 4 13 1
19 -9 19 -9 0 -16 4 -16 9 0 5 -3 18 -6 28 -5 17 -5 17 9 1 8 -10 19 -18 26
-18 6 0 11 -7 11 -16 0 -8 4 -12 10 -9 5 3 10 -4 10 -16 0 -17 5 -20 25 -17
17 4 25 1 25 -8 0 -17 17 -19 22 -3 5 14 86 -29 142 -74 23 -19 59 -45 81 -60
22 -14 66 -50 98 -79 l57 -54 0 -106 c0 -92 2 -107 20 -123 11 -10 25 -33 32
-51 14 -41 31 -43 55 -8 10 15 36 47 59 73 22 25 43 53 46 61 3 8 2 60 -2 115
-5 73 -3 107 6 125 102 203 154 340 154 404 l-1 41 -13 -38 c-8 -21 -26 -55
-40 -75 -37 -54 -152 -163 -223 -212 l-62 -42 -25 27 c-15 16 -26 34 -26 42 0
7 -8 20 -19 29 -32 28 -3 82 59 110 22 10 58 38 189 142 85 69 138 130 174
203 20 41 45 83 56 93 16 14 18 23 10 43 -5 13 -9 35 -9 49 0 37 24 105 35
100 13 -4 97 38 119 59 20 21 21 71 1 109 -31 59 -26 126 10 126 23 0 35 -34
35 -96 0 -46 2 -55 13 -45 6 6 12 35 12 64 0 33 9 69 23 98 30 61 52 192 52
304 0 214 -105 436 -278 587 -34 30 -148 96 -218 127 -104 46 -326 65 -459 39z
m549 -950 c26 -6 59 -10 73 -10 l24 0 -5 -137 c-4 -75 -9 -152 -13 -171 -8
-48 -37 -113 -57 -129 -9 -7 -16 -20 -16 -27 0 -8 -3 -14 -8 -14 -4 0 -29 -20
-55 -45 -34 -31 -57 -45 -77 -45 -15 0 -33 -7 -40 -15 -26 -31 -52 -14 -70 45
-20 66 -65 166 -79 175 -6 3 -11 15 -11 26 0 17 -16 24 -42 20 -5 0 -8 5 -8
13 0 9 -14 15 -40 18 -28 2 -40 0 -40 -10 0 -7 -9 -31 -21 -54 -19 -37 -19
-42 -5 -50 18 -10 22 -73 6 -83 -13 -8 -80 43 -80 61 0 8 11 19 25 24 22 8 24
13 15 30 -15 27 -51 34 -92 17 l-35 -15 -10 32 c-6 17 -16 55 -23 84 -11 47
-10 57 8 95 11 23 23 53 27 67 11 36 70 94 89 87 8 -3 26 -23 39 -44 14 -21
60 -72 104 -113 44 -42 85 -86 92 -98 17 -32 65 -30 87 3 13 20 14 28 4 40 -9
11 -11 33 -6 73 6 56 5 59 -19 70 -14 6 -25 16 -25 22 0 14 32 12 55 -3 25
-17 77 -28 92 -19 6 4 14 25 18 47 4 22 9 43 11 46 4 7 33 3 108 -13z m-196
-16 c2 -7 -2 -10 -12 -6 -9 3 -16 11 -16 16 0 13 23 5 28 -10z m406 -168 c26
-10 20 -37 -6 -28 -29 8 -31 10 -23 23 7 13 8 13 29 5z m-46 -134 c9 -15 10
-26 2 -40 -17 -32 -30 -23 -30 20 0 44 9 50 28 20z m-431 -260 c7 -8 13 -25
13 -37 0 -12 6 -24 13 -27 8 -3 7 -8 -5 -16 -10 -6 -18 -18 -18 -25 0 -17 -36
-20 -45 -4 -10 16 -18 116 -11 135 5 14 9 14 24 3 9 -8 22 -21 29 -29z m-237
-68 c0 -4 -12 -9 -27 -10 -22 -1 -24 0 -13 8 18 12 40 13 40 2z m64 -28 c20
-20 20 -61 0 -81 -22 -22 -64 0 -56 29 4 17 1 19 -17 13 -29 -9 -26 3 7 31 32
28 45 30 66 8z m-404 -919 c0 -8 -7 -15 -16 -15 -14 0 -14 3 -4 15 7 8 14 15
16 15 2 0 4 -7 4 -15z m10 -45 c-20 -13 -33 -13 -25 0 3 6 14 10 23 10 15 0
15 -2 2 -10z m30 -80 c0 -5 -7 -10 -16 -10 -8 0 -12 5 -9 10 3 6 10 10 16 10
5 0 9 -4 9 -10z m30 -80 c0 -5 -7 -10 -16 -10 -8 0 -12 5 -9 10 3 6 10 10 16
10 5 0 9 -4 9 -10z"/>
<path d="M2777 1913 c2 -54 8 -127 14 -162 6 -38 8 -137 4 -245 -6 -169 -6
-179 9 -152 9 15 20 42 24 60 7 26 13 31 38 31 26 0 29 -3 32 -38 2 -23 -3
-48 -13 -63 -9 -14 -13 -30 -9 -36 5 -7 3 -8 -5 -4 -8 5 -11 3 -9 -5 6 -29
-24 -108 -44 -115 -31 -10 -48 12 -37 49 5 18 9 42 9 55 0 37 -25 5 -34 -43
-8 -43 -33 -94 -54 -110 -7 -6 -15 -32 -17 -58 -5 -54 -43 -213 -56 -239 -5
-10 -30 -84 -55 -165 -87 -282 -97 -309 -155 -422 -32 -63 -59 -119 -59 -125
0 -6 -14 -31 -30 -56 -42 -63 -40 -70 25 -70 46 0 55 3 55 18 0 27 85 195 116
228 21 23 92 170 109 224 9 30 23 72 31 93 8 21 11 43 8 49 -4 6 -2 8 3 5 6
-4 13 7 17 26 6 31 45 117 85 185 l19 32 21 -35 c18 -31 30 -83 47 -200 41
-288 54 -404 60 -510 l7 -115 644 0 643 0 0 498 c0 406 -3 507 -15 552 -9 32
-15 99 -15 160 0 94 -4 117 -36 215 -20 60 -46 121 -58 133 -26 30 -68 52 -98
52 -26 0 -185 36 -248 56 -147 48 -252 75 -366 94 -71 12 -199 42 -284 67
-150 44 -241 65 -249 57 -2 -2 2 -17 9 -33 6 -17 10 -36 7 -43 -2 -7 -9 6 -16
29 -6 23 -26 72 -44 108 l-33 66 3 -98z m109 -193 c6 -29 8 -69 4 -97 -4 -26
-6 -55 -5 -63 10 -50 9 -84 -2 -87 -20 -7 -32 30 -34 103 -3 77 11 208 20 198
3 -3 11 -28 17 -54z m-69 -585 c-1 -28 -5 -35 -21 -35 -35 0 -49 15 -42 44 5
20 12 26 35 26 27 0 29 -3 28 -35z m-23 -54 c3 -5 -1 -28 -8 -52 -8 -24 -19
-64 -27 -89 -7 -25 -17 -51 -22 -57 -5 -7 -7 -13 -4 -13 3 0 -8 -35 -25 -77
-16 -43 -32 -89 -34 -103 -7 -39 -26 -94 -37 -107 -5 -7 -7 -13 -3 -13 3 0 -4
-18 -16 -41 l-21 -41 -13 32 c-15 36 -11 50 14 50 16 1 16 2 1 13 -18 14 -15
31 34 177 14 41 36 108 48 148 12 39 27 72 31 72 5 0 8 6 7 13 -3 13 10 76 18
90 6 10 51 9 57 -2z m-207 -601 c8 -12 9 -21 3 -25 -6 -3 -10 -15 -10 -26 0
-14 -7 -19 -25 -19 -16 0 -25 6 -25 16 0 9 6 14 13 11 10 -4 13 2 9 19 -2 14
0 24 7 24 7 0 9 5 6 10 -3 6 -2 10 2 10 5 0 14 -9 20 -20z m1213 -11 c0 -26
-14 -30 -235 -73 -272 -52 -247 -49 -243 -23 3 20 18 25 148 55 230 53 314 70
323 65 4 -2 7 -13 7 -24z m-1240 -92 c0 -33 -121 -234 -146 -244 -20 -7 -29 3
-17 19 5 7 18 36 28 63 10 28 25 61 34 75 9 14 25 42 35 63 14 27 26 37 43 37
12 0 23 -6 23 -13z m-160 -284 c-1 -18 -26 -48 -42 -51 -13 -2 -16 2 -11 15 3
10 10 24 16 31 10 13 37 17 37 5z"/>
<path d="M1981 1564 c0 -11 3 -14 6 -6 3 7 2 16 -1 19 -3 4 -6 -2 -5 -13z"/>
<path d="M2661 1394 c-8 -29 -7 -40 4 -51 8 -8 15 -19 15 -24 0 -6 5 -7 10 -4
6 3 10 1 10 -6 0 -9 3 -9 14 0 11 9 15 9 19 -1 4 -8 6 -7 6 5 1 9 -3 17 -9 17
-5 0 -10 7 -10 15 0 19 -32 85 -41 85 -5 0 -13 -16 -18 -36z"/>
<path d="M2101 1404 c0 -11 3 -14 6 -6 3 7 2 16 -1 19 -3 4 -6 -2 -5 -13z"/>
<path d="M2066 1351 c-33 -63 -6 -96 37 -44 21 26 21 25 -2 52 l-20 23 -15
-31z"/>
<path d="M2225 91 c-6 -6 -9 -29 -7 -51 3 -31 8 -40 23 -40 22 0 25 30 6 73
-8 19 -15 25 -22 18z"/>
</g>
</svg>
